<svg width="11" height="11" fill="none" xmlns="http://www.w3.org/2000/svg"><path d="M5.5 8.709a.458.458 0 100-.917.458.458 0 000 .917zm2.292 0a.458.458 0 100-.917.458.458 0 000 .917zm0-1.834a.458.458 0 100-.916.458.458 0 000 .916zm-2.292 0a.458.458 0 100-.917.458.458 0 000 .917zm3.208-5.5H8.25V.917a.458.458 0 00-.917 0v.458H3.667V.917a.458.458 0 00-.917 0v.458h-.458A1.375 1.375 0 00.917 2.75v6.417a1.375 1.375 0 001.375 1.375h6.416a1.375 1.375 0 001.375-1.375V2.75a1.375 1.375 0 00-1.375-1.375zm.459 7.792a.458.458 0 01-.459.458H2.292a.458.458 0 01-.459-.458V5.042h7.334v4.125zm0-5.042H1.833V2.75a.458.458 0 01.459-.458h.458v.458a.458.458 0 10.917 0v-.458h3.666v.458a.458.458 0 10.917 0v-.458h.458a.458.458 0 01.459.458v1.375zm-5.959 2.75a.458.458 0 100-.917.458.458 0 000 .917zm0 1.834a.458.458 0 100-.917.458.458 0 000 .917z" fill="#FFA454"/></svg>