<svg width="16" height="16" fill="none" xmlns="http://www.w3.org/2000/svg"><path d="M11.044 14.666h.019c.352 0 .684-.139.936-.39l1.808-1.809a.668.668 0 000-.942l-2.666-2.667a.665.665 0 00-.943 0L9.135 9.921c-.492-.147-1.412-.48-1.994-1.063-.583-.583-.916-1.502-1.063-1.995l1.063-1.062a.666.666 0 000-.943L4.474 2.191a.687.687 0 00-.943 0L1.724 4a1.332 1.332 0 00-.39.957c.015.95.266 4.247 2.865 6.845 2.598 2.599 5.896 2.85 6.845 2.865zm-7.04-11.06l1.723 1.723-.862.862a.664.664 0 00-.18.608c.016.077.407 1.895 1.514 3.002 1.106 1.106 2.924 1.498 3.001 1.514a.662.662 0 00.608-.181l.862-.862 1.724 1.724-1.337 1.337c-.832-.014-3.679-.238-5.916-2.475-2.244-2.244-2.46-5.1-2.474-5.916l1.336-1.337zm9.329 3.727h1.333c0-3.42-2.582-6-6.007-6v1.334c2.708 0 4.674 1.962 4.674 4.666z" fill="#fff"/><path d="M8.666 5.333c1.402 0 2 .598 2 2h1.333C12 5.183 10.816 4 8.666 4v1.333z" fill="#fff"/></svg>